<svg width="49" height="48" viewBox="0 0 49 48" fill="none" xmlns="http://www.w3.org/2000/svg">
<path fill-rule="evenodd" clip-rule="evenodd" d="M24.8975 10C23.8366 10 22.8192 10.4214 22.069 11.1716C21.3189 11.9217 20.8975 12.9391 20.8975 14C20.8975 15.0609 21.3189 16.0783 22.069 16.8284C22.8192 17.5786 23.8366 18 24.8975 18C25.9583 18 26.9757 17.5786 27.7259 16.8284C28.476 16.0783 28.8975 15.0609 28.8975 14C28.8975 12.9391 28.476 11.9217 27.7259 11.1716C26.9757 10.4214 25.9583 10 24.8975 10ZM19.2406 8.34315C20.7409 6.84285 22.7757 6 24.8975 6C27.0192 6 29.054 6.84285 30.5543 8.34315C32.0546 9.84344 32.8975 11.8783 32.8975 14C32.8975 16.1217 32.0546 18.1566 30.5543 19.6569C29.054 21.1571 27.0192 22 24.8975 22C22.7757 22 20.7409 21.1571 19.2406 19.6569C17.7403 18.1566 16.8975 16.1217 16.8975 14C16.8975 11.8783 17.7403 9.84344 19.2406 8.34315ZM10.8975 18C10.367 18 9.85832 18.2107 9.48325 18.5858C9.10817 18.9609 8.89746 19.4696 8.89746 20C8.89746 20.5304 9.10817 21.0391 9.48325 21.4142C9.85832 21.7893 10.367 22 10.8975 22C11.4279 22 11.9366 21.7893 12.3117 21.4142C12.6867 21.0391 12.8975 20.5304 12.8975 20C12.8975 19.4696 12.6867 18.9609 12.3117 18.5858C11.9366 18.2107 11.4279 18 10.8975 18ZM6.65482 15.7574C7.78004 14.6321 9.30616 14 10.8975 14C12.4888 14 14.0149 14.6321 15.1401 15.7574C16.2653 16.8826 16.8975 18.4087 16.8975 20C16.8975 21.5913 16.2653 23.1174 15.1401 24.2426C14.0149 25.3679 12.4888 26 10.8975 26C9.30616 26 7.78004 25.3679 6.65482 24.2426C5.5296 23.1174 4.89746 21.5913 4.89746 20C4.89746 18.4087 5.5296 16.8826 6.65482 15.7574ZM38.8975 18C38.367 18 37.8583 18.2107 37.4832 18.5858C37.1082 18.9609 36.8975 19.4696 36.8975 20C36.8975 20.5304 37.1082 21.0391 37.4832 21.4142C37.8583 21.7893 38.367 22 38.8975 22C39.4279 22 39.9366 21.7893 40.3117 21.4142C40.6867 21.0391 40.8975 20.5304 40.8975 20C40.8975 19.4696 40.6867 18.9609 40.3117 18.5858C39.9366 18.2107 39.4279 18 38.8975 18ZM34.6548 15.7574C35.78 14.6321 37.3062 14 38.8975 14C40.4888 14 42.0149 14.6321 43.1401 15.7574C44.2653 16.8826 44.8975 18.4087 44.8975 20C44.8975 21.5913 44.2653 23.1174 43.1401 24.2426C42.0149 25.3679 40.4888 26 38.8975 26C37.3062 26 35.78 25.3679 34.6548 24.2426C33.5296 23.1174 32.8975 21.5913 32.8975 20C32.8975 18.4087 33.5296 16.8826 34.6548 15.7574ZM24.8975 27.9986C23.298 27.9986 21.7352 28.4778 20.4106 29.3745C19.162 30.2197 18.1791 31.3993 17.5728 32.7757L17.0906 38H32.7044L32.2222 32.7757C31.6158 31.3993 30.6329 30.2197 29.3843 29.3745C28.0598 28.4778 26.497 27.9986 24.8975 27.9986ZM36.8975 38H42.8975V36.0001C42.8975 36.0001 42.8975 36.0002 42.8975 36.0001C42.8974 35.1689 42.6383 34.3582 42.1563 33.681C41.6743 33.0037 40.9932 32.4935 40.2078 32.2211C39.4224 31.9488 38.5716 31.928 37.7738 32.1615C37.3003 32.3001 36.8594 32.5242 36.4716 32.82C36.7498 33.835 36.8975 34.902 36.8975 36V38ZM34.757 29.1553C33.9174 27.9464 32.8582 26.8958 31.6266 26.062C29.6401 24.7173 27.2963 23.9986 24.8975 23.9986C22.4986 23.9986 20.1548 24.7173 18.1683 26.062C16.9367 26.8958 15.8775 27.9464 15.0379 29.1553C14.449 28.799 13.8131 28.5182 13.1448 28.3226C11.5491 27.8555 9.84763 27.8972 8.2768 28.4419C6.70596 28.9865 5.34383 30.007 4.37976 31.3615C3.41569 32.716 2.89758 34.3373 2.89746 35.9999V40C2.89746 41.1046 3.79289 42 4.89746 42H44.8975C46.002 42 46.8975 41.1046 46.8975 40V36C46.8973 34.3374 46.3792 32.716 45.4152 31.3615C44.4511 30.007 43.089 28.9865 41.5181 28.4419C39.9473 27.8972 38.2458 27.8555 36.6502 28.3226C35.9818 28.5182 35.346 28.799 34.757 29.1553ZM13.3234 32.82C12.9356 32.5242 12.4946 32.3001 12.0211 32.1615C11.2233 31.928 10.3725 31.9488 9.58713 32.2211C8.80171 32.4935 8.12064 33.0037 7.63861 33.681C7.1566 34.3582 6.89755 35.1688 6.89746 36C6.89746 36 6.89746 36 6.89746 36V38H12.8975V36C12.8975 34.902 13.0451 33.835 13.3234 32.82Z" fill="#25324B"/>
</svg>
