<svg width="49" height="48" viewBox="0 0 49 48" fill="none" xmlns="http://www.w3.org/2000/svg">
<path d="M20.3975 34L18.8975 40L16.8975 42H32.8975L30.8975 40L29.3975 34H20.3975ZM6.89746 26H42.8975H6.89746ZM10.8975 34H38.8975C39.9583 34 40.9757 33.5786 41.7259 32.8284C42.476 32.0783 42.8975 31.0609 42.8975 30V10C42.8975 8.93913 42.476 7.92172 41.7259 7.17157C40.9757 6.42143 39.9583 6 38.8975 6H10.8975C9.83659 6 8.81918 6.42143 8.06903 7.17157C7.31889 7.92172 6.89746 8.93913 6.89746 10V30C6.89746 31.0609 7.31889 32.0783 8.06903 32.8284C8.81918 33.5786 9.83659 34 10.8975 34Z" stroke="#4640DE" stroke-width="3" stroke-linecap="round" stroke-linejoin="round"
       
/>
</svg>
