<svg width="49" height="48" viewBox="0 0 49 48" fill="none" xmlns="http://www.w3.org/2000/svg">
<g clip-path="url(#clip0_579_550)">
<path d="M6.89746 41.9996H14.8975L40.8975 15.9996C41.9583 14.9388 42.5543 13.4999 42.5543 11.9996C42.5543 10.4993 41.9583 9.06049 40.8975 7.99963C39.8366 6.93876 38.3978 6.34277 36.8975 6.34277C35.3972 6.34277 33.9583 6.93876 32.8975 7.99963L6.89746 33.9996V41.9996Z" stroke="#4640DE" stroke-width="3" stroke-linecap="round" stroke-linejoin="round"/>
<path d="M29.8975 11L37.8975 19" stroke="#4640DE" stroke-width="3" stroke-linecap="round" stroke-linejoin="round"/>
<path d="M24.8975 16L14.8975 6L6.89746 14L16.8975 24" stroke="#4640DE" stroke-width="3" stroke-linecap="round" stroke-linejoin="round"/>
<path d="M14.8975 16L11.8975 19" stroke="#4640DE" stroke-width="3" stroke-linecap="round" stroke-linejoin="round"/>
<path d="M32.8975 24L42.8975 34L34.8975 42L24.8975 32" stroke="#4640DE" stroke-width="3" stroke-linecap="round" stroke-linejoin="round"/>
<path d="M32.8975 34L29.8975 37" stroke="#4640DE" stroke-width="3" stroke-linecap="round" stroke-linejoin="round"/>
</g>
</svg>
