<svg width="49" height="48" viewBox="0 0 49 48" fill="none" xmlns="http://www.w3.org/2000/svg">
<path d="M34.8975 18V14C34.8975 12.9391 34.476 11.9217 33.7259 11.1716C32.9757 10.4214 31.9583 10 30.8975 10H10.8975C9.83659 10 8.81918 10.4214 8.06903 11.1716C7.31889 11.9217 6.89746 12.9391 6.89746 14V26C6.89746 27.0609 7.31889 28.0783 8.06903 28.8284C8.81918 29.5786 9.83659 30 10.8975 30H14.8975M18.8975 38H38.8975C39.9583 38 40.9757 37.5786 41.7259 36.8284C42.476 36.0783 42.8975 35.0609 42.8975 34V22C42.8975 20.9391 42.476 19.9217 41.7259 19.1716C40.9757 18.4214 39.9583 18 38.8975 18H18.8975C17.8366 18 16.8192 18.4214 16.069 19.1716C15.3189 19.9217 14.8975 20.9391 14.8975 22V34C14.8975 35.0609 15.3189 36.0783 16.069 36.8284C16.8192 37.5786 17.8366 38 18.8975 38ZM32.8975 28C32.8975 29.0609 32.476 30.0783 31.7259 30.8284C30.9757 31.5786 29.9583 32 28.8975 32C27.8366 32 26.8192 31.5786 26.069 30.8284C25.3189 30.0783 24.8975 29.0609 24.8975 28C24.8975 26.9391 25.3189 25.9217 26.069 25.1716C26.8192 24.4214 27.8366 24 28.8975 24C29.9583 24 30.9757 24.4214 31.7259 25.1716C32.476 25.9217 32.8975 26.9391 32.8975 28Z" stroke="#4640DE" stroke-width="3" stroke-linecap="round" stroke-linejoin="round"/>
</svg>
