<svg width="49" height="48" viewBox="0 0 49 48" fill="none" xmlns="http://www.w3.org/2000/svg">
<path d="M42.8975 26.51C37.1784 28.8225 31.0663 30.0075 24.8975 30C18.5315 30 12.4575 28.76 6.89746 26.51M24.8975 24H24.9175M32.8975 12V8C32.8975 6.93913 32.476 5.92172 31.7259 5.17157C30.9757 4.42143 29.9583 4 28.8975 4H20.8975C19.8366 4 18.8192 4.42143 18.069 5.17157C17.3189 5.92172 16.8975 6.93913 16.8975 8V12H32.8975ZM10.8975 40H38.8975C39.9583 40 40.9757 39.5786 41.7259 38.8284C42.476 38.0783 42.8975 37.0609 42.8975 36V16C42.8975 14.9391 42.476 13.9217 41.7259 13.1716C40.9757 12.4214 39.9583 12 38.8975 12H10.8975C9.83659 12 8.81918 12.4214 8.06903 13.1716C7.31889 13.9217 6.89746 14.9391 6.89746 16V36C6.89746 37.0609 7.31889 38.0783 8.06903 38.8284C8.81918 39.5786 9.83659 40 10.8975 40Z" stroke="#4640DE" stroke-width="3" stroke-linecap="round" stroke-linejoin="round"/>
</svg>
