<svg width="49" height="48" viewBox="0 0 49 48" fill="none" xmlns="http://www.w3.org/2000/svg">
<style>
  
  </style>
<path d="M22.8974 11.764V38.48C22.8968 39.3089 22.6037 40.1111 22.0697 40.7451C21.5357 41.3791 20.7951 41.8043 19.9783 41.9458C19.1615 42.0873 18.321 41.936 17.6049 41.5186C16.8887 41.1012 16.3428 40.4444 16.0634 39.664L11.7694 27.364M36.8974 26C38.4887 26 40.0148 25.3679 41.14 24.2426C42.2653 23.1174 42.8974 21.5913 42.8974 20C42.8974 18.4087 42.2653 16.8826 41.14 15.7574C40.0148 14.6321 38.4887 14 36.8974 14V26ZM11.7694 27.366C10.0718 26.6442 8.67577 25.3581 7.81746 23.7253C6.95915 22.0925 6.69131 20.2134 7.05927 18.4058C7.42723 16.5982 8.40838 14.9733 9.8367 13.806C11.265 12.6387 13.0528 12.0007 14.8974 12H18.5614C26.7614 12 33.8114 9.532 36.8974 6V34C33.8114 30.468 26.7634 28 18.5614 28H14.8974C13.8227 28.0016 12.7587 27.7859 11.7694 27.366Z" 
    stroke="#4640DE" stroke-width="3" stroke-linecap="round" stroke-linejoin="round"/>
</svg>
